<?xml version="1.0" encoding="UTF-8"?>
<svg id="Layer_2" data-name="Layer 2" xmlns="http://www.w3.org/2000/svg" xmlns:xlink="http://www.w3.org/1999/xlink" viewBox="0 0 1046.46 950.58">
  <defs>
    <style>
      .cls-1 {
        fill: url(#linear-gradient);
      }

      .cls-1, .cls-2, .cls-3, .cls-4, .cls-5, .cls-6 {
        stroke-width: 0px;
      }

      .cls-2 {
        fill: #333;
      }

      .cls-3 {
        fill: #dbda82;
      }

      .cls-4 {
        fill: url(#linear-gradient-2);
      }

      .cls-5 {
        fill: url(#linear-gradient-3);
      }

      .cls-6 {
        fill: #231f20;
      }
    </style>
    <linearGradient id="linear-gradient" x1="311.54" y1="735.47" x2="273.46" y2="699.77" gradientUnits="userSpaceOnUse">
      <stop offset="0" stop-color="#248b43"/>
      <stop offset=".99" stop-color="#24b34b"/>
    </linearGradient>
    <linearGradient id="linear-gradient-2" x1="107.51" y1="822.04" x2="105.13" y2="787.53" xlink:href="#linear-gradient"/>
    <linearGradient id="linear-gradient-3" x1="577.42" y1="199.76" x2="820.2" y2="321.15" gradientUnits="userSpaceOnUse">
      <stop offset="0" stop-color="#fff"/>
      <stop offset=".99" stop-color="#979797"/>
    </linearGradient>
  </defs>
  <g id="Layer_1-2" data-name="Layer 1">
    <g>
      <g>
        <path class="cls-2" d="m780.41,479.41c-32.07,14.62-67.26,47.08-70.51,73.19-2.91,23.3,23.74,40.59,35.7,50.88,26.64,22.91,72.12,31.76,79.44,47.31,14.28,30.35-18.74,83.9-14.28,140.13,4.46,56.23,25.88,95.5,86.58,133.88,60.69,38.38,119.6,20.53,137.45-20.53,9.75-22.43,9.82-51.74-.89-71.4-8.89-16.33-28.16-24.12-28.56-33.02-.89-19.64,12.5-32.13,6.25-59.8-6.25-27.67-40.17-34.51-46.41-46.11-6.25-11.6,6.25-36.01-4.46-63.68s-28.17-30.03-28.56-49.98,4.46-41.95-22.31-81.22c-26.78-39.27-68.73-47.31-129.42-19.64Z"/>
        <path class="cls-6" d="m964.18,950.58c-22.48,0-46.29-7.46-69.25-21.97-30.78-19.47-51.69-39.06-65.79-61.67-13.18-21.14-20.45-45.18-22.87-75.66-2.19-27.61,4.37-54.39,10.16-78.02,6.07-24.77,11.31-46.16,4.54-60.56-3.05-6.49-16.91-12.71-31.58-19.3-15.6-7.01-33.29-14.95-46.72-26.51-1.61-1.38-3.55-2.95-5.61-4.6-13.71-11.03-34.44-27.69-31.62-50.25,3.54-28.42,40.71-61.96,73.11-76.73l1.87,4.09-1.87-4.09c30.69-13.99,57.61-19.25,80.01-15.63,22.28,3.6,40.78,15.99,54.99,36.83,23.83,34.95,23.45,57.32,23.14,75.29-.05,2.92-.1,5.67-.04,8.38.17,8.89,4.19,13.44,10.28,20.33,5.63,6.38,12.64,14.31,17.98,28.11,6.54,16.9,4.98,32.32,3.72,44.71-.8,7.9-1.49,14.73.51,18.45,1.69,3.14,7.44,6.62,13.52,10.29,12.21,7.38,28.93,17.49,33.32,36.96,3.98,17.6.46,29.63-2.63,40.24-1.97,6.76-3.84,13.15-3.51,20.35.11,2.48,4.85,6.52,9.43,10.43,6.11,5.22,13.72,11.71,18.59,20.64,11.08,20.34,11.51,51.32,1.07,75.35-8.41,19.35-25.05,33.7-46.83,40.4-8.94,2.75-18.3,4.11-27.9,4.11Zm-120.2-483c-17.9,0-38.42,5.32-61.7,15.93h0c-30.33,13.83-64.85,45.11-67.91,69.65-2.19,17.57,16.18,32.34,28.33,42.12,2.12,1.7,4.12,3.31,5.84,4.79,12.45,10.71,29.5,18.37,44.54,25.12,17.63,7.92,31.56,14.18,36.03,23.68,8.13,17.28,2.54,40.1-3.94,66.53-5.63,22.96-12,48.99-9.93,75.16,4.63,58.34,28.32,94.91,84.5,130.44,30.5,19.29,62.35,25.28,89.7,16.87,19.24-5.92,33.88-18.48,41.23-35.39,9.42-21.65,9.12-49.39-.72-67.46-4.07-7.47-10.69-13.12-16.52-18.1-6.6-5.63-12.29-10.49-12.58-16.87-.4-8.7,1.77-16.11,3.86-23.28,2.93-10.03,5.96-20.4,2.49-35.73-3.55-15.73-17.18-23.97-29.2-31.24-7.47-4.52-13.93-8.42-16.79-13.73-3.31-6.15-2.49-14.25-1.54-23.63,1.16-11.44,2.61-25.67-3.16-40.56-4.76-12.3-10.91-19.26-16.34-25.41-6.32-7.16-12.29-13.92-12.53-26.12-.06-2.88,0-5.71.04-8.71.3-17.56.64-37.47-21.58-70.06-15.47-22.7-36.03-34.01-62.14-34.01Z"/>
      </g>
      <path class="cls-6" d="m929.08,834.26c-1.88-.88-46.06-22.26-53.87-82.04-1.08-8.29-1.88-18.46-2.81-30.23-2.14-27.26-4.8-61.18-12.69-89.65-12.11-43.72-44.28-81.8-44.61-82.18l-2.85-3.34,76.46-68.52,6.01,6.7-69.99,62.72c8.35,10.52,33,43.76,43.65,82.22,8.12,29.31,10.82,63.71,12.99,91.35.91,11.65,1.7,21.71,2.76,29.76,7.15,54.72,48.37,74.86,48.78,75.06l-3.83,8.14Z"/>
      <g>
        <path class="cls-1" d="m384.31,550.59c-1.96-11.01-36.3-47.31-61.29-41.95-11.49,2.46-33.86,20.46-53.55,47.01-23.13,31.17-44.68,73.72-72,110.68-50.58,68.43-117.82,57.72-120.79,58.91l37.49,85.09s87.47-22.02,130.91-54.74c43.44-32.73,107.7-90.45,127.93-136.26,20.23-45.82,13.27-57.72,11.31-68.73Zm-53.09,26.7c-13.14,0-23.79-10.65-23.79-23.79s10.65-23.79,23.79-23.79,23.79,10.65,23.79,23.79-10.65,23.79-23.79,23.79Z"/>
        <path class="cls-6" d="m111.57,815.62l-40.9-92.83,4.32-1.73c1.2-.48,2.34-.46,5.39-.39,46.67.95,84.79-18.22,113.46-57.01,14.05-19.01,26.56-39.5,38.66-59.32,11.36-18.61,22.1-36.2,33.35-51.37,18.75-25.27,42.39-45.76,56.22-48.73,12.83-2.75,26.33,3.95,35.41,10.05,15.08,10.14,29.69,26.73,31.25,35.51.22,1.21.51,2.5.82,3.85,2.51,10.89,5.96,25.81-12.44,67.48-19.83,44.9-82.07,102.42-129.34,138.04-43.66,32.9-128.91,54.61-132.52,55.51l-3.68.93Zm-28.01-85.9l33.16,75.28c16.96-4.57,88.42-24.96,125.63-53.01,46.41-34.97,107.4-91.17,126.53-134.49,17.19-38.93,14.14-52.16,11.91-61.82-.34-1.47-.66-2.86-.92-4.3h0c-.8-4.49-11.81-19.14-27.41-29.62-7.63-5.13-18.78-10.81-28.5-8.72-10.1,2.16-31.9,19.7-50.88,45.29-11.01,14.84-21.64,32.26-32.9,50.69-12.2,19.98-24.81,40.65-39.1,59.98-19.49,26.36-43.67,44.45-71.88,53.76-19.81,6.54-36.5,7.05-45.64,6.96Zm247.66-147.93c-15.6,0-28.29-12.69-28.29-28.29s12.69-28.29,28.29-28.29,28.29,12.69,28.29,28.29-12.69,28.29-28.29,28.29Zm0-47.58c-10.64,0-19.29,8.65-19.29,19.29s8.66,19.29,19.29,19.29,19.29-8.65,19.29-19.29-8.65-19.29-19.29-19.29Z"/>
      </g>
      <rect class="cls-6" x="711.06" y="548.99" width="107.83" height="9" transform="translate(-58.99 92.38) rotate(-6.65)"/>
      <g>
        <circle class="cls-2" cx="952.41" cy="883.74" r="16.96"/>
        <path class="cls-6" d="m952.41,905.2c-11.83,0-21.46-9.63-21.46-21.46s9.63-21.46,21.46-21.46,21.46,9.63,21.46,21.46-9.63,21.46-21.46,21.46Zm0-33.92c-6.87,0-12.46,5.59-12.46,12.46s5.59,12.46,12.46,12.46,12.46-5.59,12.46-12.46-5.59-12.46-12.46-12.46Z"/>
      </g>
      <g>
        <path class="cls-3" d="m756.65,94.95s-43.44,50.28-104.73,125.26-60.2,108.06-83.9,153.52-47.01,99.97-76.17,111.87c-29.16,11.9-89.85,2.38-114.25,13.69-24.4,11.31-39.87,25.59-39.87,25.59l17.85,23.8s11.31-8.33,36.3-13.69,44.63,1.19,78.55,0,55.34-21.42,95.8-83.31c40.46-61.88,45.82-89.26,127.34-188.03s97.59-135.97,97.59-135.97l-34.51-32.73Z"/>
        <path class="cls-6" d="m354.66,554.9l-2.67-3.53-20.29-27.05,2.99-2.76c.65-.6,16.28-14.89,41.03-26.36,12.91-5.98,34.04-6.49,56.4-7.02,21.66-.52,44.06-1.05,58.04-6.75,23.12-9.44,43.36-49.55,62.94-88.34,3.58-7.1,7.28-14.44,10.94-21.44,7.05-13.53,11.84-25.85,16.91-38.89,11.94-30.75,24.29-62.54,67.5-115.4,60.63-74.17,104.37-124.85,104.81-125.35l3.08-3.57,40.21,38.13-1.25,2.89c-.67,1.54-17.25,38.91-98.25,137.05-56.6,68.58-76.09,102.19-96.73,137.77-8.85,15.25-18,31.03-30.31,49.86-42.49,64.98-64.79,84.13-99.41,85.34-14.37.51-26.31-.36-36.85-1.13-14.47-1.05-26.96-1.96-40.91,1.03-23.53,5.04-34.48,12.84-34.59,12.92l-3.58,2.6Zm-10.79-29.36l12.85,17.13c5.37-3.02,16.51-8.3,34.22-12.09,15.21-3.26,28.3-2.31,43.45-1.21,10.31.75,22,1.6,35.88,1.11,31.38-1.1,51.2-18.57,92.19-81.27,12.19-18.64,21.27-34.3,30.06-49.45,20.83-35.91,40.5-69.82,97.57-138.98,68.07-82.48,90.3-121.86,95.57-132.11l-28.69-27.21c-10.96,12.77-50.19,58.73-101.58,121.59-42.3,51.75-54.39,82.87-66.08,112.96-5.16,13.28-10.03,25.83-17.31,39.79-3.62,6.95-7.31,14.26-10.88,21.33-20.32,40.27-41.33,81.91-67.57,92.62-15.5,6.33-38.75,6.88-61.22,7.42-20.46.49-41.62.99-52.83,6.19-17.32,8.03-30.07,17.64-35.63,22.18Z"/>
      </g>
      <g>
        <path class="cls-4" d="m133.94,716.54c4.25-31.1,24.33-59.6,24.4-77.36.08-21.99-21.96-30.04-41.06-36.3-34.51-11.31-54.15,14.88-54.15,14.88,0,0-63.67,88.66-58.31,130.91,5.36,42.25,36.3,76.76,101.75,70.81,65.45-5.95,95.8-38.68,95.8-38.68,0,0-77.95,5.36-68.43-64.26Zm-32.15-19.31c-14.42,0-26.11-11.69-26.11-26.11s11.69-26.11,26.11-26.11,26.11,11.69,26.11,26.11-11.69,26.11-26.11,26.11Z"/>
        <path class="cls-6" d="m92.1,824.66c-25.12,0-45.84-6.36-61.74-18.98-16.62-13.19-27-32.71-30.01-56.44-5.51-43.5,56.48-130.42,59.12-134.1.27-.36,22.05-28.7,59.21-16.53,17.62,5.77,44.25,14.49,44.16,40.59-.03,9.39-4.77,20.64-10.25,33.66-5.65,13.42-12.05,28.64-14.19,44.28-2.44,17.85,1.01,31.92,10.25,41.83,18.15,19.45,53.07,17.36,53.41,17.33l11.3-.75-7.7,8.3c-1.29,1.39-32.28,34.06-98.69,40.1-5.12.46-10.08.7-14.88.7Zm-25.35-204.22c-1.79,2.5-62.49,88.05-57.47,127.67,5.94,46.86,42.16,71.87,96.88,66.89,43.54-3.96,71.26-20.22,84.24-29.9-13.3-1.02-34.42-5.1-48.3-19.94-11.2-11.98-15.45-28.55-12.62-49.22h0c2.3-16.83,8.95-32.62,14.81-46.56,5.11-12.14,9.52-22.62,9.54-30.21.07-18.05-17.92-25.44-37.96-32-30.57-10.02-48.05,11.88-49.13,13.27Zm35.04,81.3c-16.88,0-30.61-13.73-30.61-30.61s13.73-30.61,30.61-30.61,30.61,13.73,30.61,30.61-13.73,30.61-30.61,30.61Zm0-52.23c-11.92,0-21.61,9.7-21.61,21.61s9.7,21.61,21.61,21.61,21.61-9.7,21.61-21.61-9.7-21.61-21.61-21.61Z"/>
      </g>
      <g>
        <path class="cls-3" d="m459.72,272.27s-51.64,111.08-117.31,150.15c-65.67,39.07-84.41,20.33-141.54,39.96s-85.39,68.13-99.57,120.79c-14.18,52.66-11.26,65.3-11.26,65.3l27.22,3.87s-9.06-20.08,13.19-65.2c12.95-26.26,52.7-51.94,69.52-61.39,45.72-25.69,100.86-32.11,156.2-47.74,55.34-15.63,68.73-29.02,96.4-73.65,27.67-44.63,52.66-109.79,52.66-109.79l-45.52-22.31Z"/>
        <path class="cls-6" d="m124.76,658.01l-8.12-1.21-30.28-4.3-.7-3.01c-.33-1.41-2.77-15.24,11.29-67.48,17.46-64.83,51.93-106.51,102.45-123.88,22.96-7.89,39.65-9.69,55.8-11.43,23.62-2.55,45.92-4.95,84.9-28.14,63.7-37.9,115.02-147.09,115.53-148.18l1.94-4.16,53.34,26.15-1.47,3.84c-.25.66-25.46,66.07-53.04,110.54-28.61,46.15-43.25,59.86-99,75.61-16.66,4.71-33.4,8.61-49.58,12.38-38.13,8.88-74.16,17.27-105.63,34.96-5.43,3.05-53.49,30.65-67.69,59.46-20.75,42.08-13.18,61.23-13.1,61.42l3.36,7.46Zm-30.48-13.47l17.14,2.44c-1.3-9.88-.66-30.05,15-61.82,15.4-31.23,65.67-60.13,71.35-63.32,32.6-18.31,69.22-26.84,108-35.88,16.08-3.75,32.72-7.62,49.18-12.27,53.95-15.24,66.7-27.99,93.8-71.69,23.31-37.6,44.99-90.63,50.78-105.2l-37.72-18.49c-10.22,20.91-57.45,112.49-117.1,147.98-40.66,24.19-63.92,26.7-88.54,29.35-15.65,1.69-31.83,3.43-53.84,11-47.52,16.34-80.05,55.94-96.69,117.71-10.08,37.43-11.38,54.04-11.37,60.19Z"/>
      </g>
      <g>
        <path class="cls-5" d="m762.3,511.48c10.71,14.36,19.64,20.53,47.31,12.5,27.67-8.03,33.92-22.31,32.13-32.13s-23.21-41.95-17.85-63.37c5.36-21.42,39.27-28.56,59.8-74.98,20.53-46.41,16.96-87.47-15.17-149.06-16.85-32.29-50.21-94.86-83.9-138.35-30.57-39.46-48.16-61.59-62.48-61.59s-31.24,21.02-31.24,38.18,69,95.7,96.53,141.22,40.03,74.08,29.32,116.03-35.7,76.76-66.94,91.93-81.08,19.56-106.21,20.53c-14.13.55-53.08-20.74-79.14-52.96-20.3-25.1-19.04-42.84-34.51-72s-39.91-58.54-55.34-75.57c-12.6-13.91-33.93-6.43-40.76-1.19-5.19,3.98-13.87,19.39-8.03,36.89,18.59,55.74,91.47,158.31,123.17,192.5,16.94,18.27,37.85,41.15,72.6,46.12,50.71,7.25,100.86-5.1,114.84-.6,13.98,4.5,15.17,11.52,25.88,25.88Z"/>
        <path class="cls-6" d="m788.97,532.05c-13.9,0-21.78-6.49-30.28-17.88-2.66-3.57-4.73-6.66-6.55-9.39-5.49-8.22-8-11.97-17.11-14.9-4.91-1.58-17.23-.54-31.51.67-22.07,1.87-52.29,4.43-82.59.1-35.98-5.14-57.49-28.34-74.77-46.98l-.49-.53c-31.85-34.36-104.99-136.69-124.14-194.13-6.48-19.44,3.03-36.87,9.56-41.89,9.02-6.92,32.78-13.77,46.83,1.74,13.88,15.32,39.61,45.63,55.98,76.48,6.35,11.97,10.02,22.27,13.26,31.35,4.88,13.67,9.08,25.48,20.77,39.92,26.38,32.61,63.88,51.74,75.47,51.29,16.08-.62,71.13-3.91,104.42-20.08,29.9-14.52,54.03-47.79,64.55-89,10.04-39.33-.27-65.41-28.81-112.59-11.51-19.03-30.31-43.85-48.49-67.85-30.19-39.85-48.69-64.83-48.69-75.7,0-19.94,19.04-42.68,35.74-42.68s32.9,20.56,66.04,63.33c36.14,46.65,72.41,116.17,84.33,139.02,32.31,61.92,36.6,104.81,15.3,152.96-12.04,27.23-28.29,41.19-41.35,52.41-9.07,7.79-16.23,13.94-18.2,21.84-3.37,13.48,5.85,33.36,11.95,46.5,2.97,6.41,5.32,11.47,5.96,14.97,2.25,12.4-5.84,28.7-35.3,37.26-8.77,2.55-15.89,3.76-21.89,3.76Zm-62.11-51.97c4.52,0,8.18.34,10.94,1.23,12.09,3.9,15.97,9.69,21.83,18.47,1.76,2.64,3.76,5.63,6.28,9.01h0c9.88,13.25,16.89,18.28,42.44,10.86,23.72-6.89,30.51-18.46,28.96-27.01-.43-2.36-2.78-7.43-5.27-12.79-7.03-15.15-16.66-35.91-12.52-52.48,2.67-10.67,11.19-18,21.07-26.48,12.37-10.63,27.76-23.85,38.98-49.22,20.3-45.89,16.22-85.23-15.05-145.16-11.83-22.67-47.82-91.66-83.47-137.67-26.92-34.74-46.36-59.84-58.92-59.84-11.75,0-26.74,18.89-26.74,33.68,0,8.4,24.9,41.27,46.86,70.26,18.32,24.19,37.27,49.2,49.02,68.63,29.34,48.5,40.6,77.26,29.83,119.48-11.17,43.74-37.09,79.2-69.34,94.87-34.87,16.93-91.48,20.34-108.01,20.98-17.32.65-57.27-23.05-82.81-54.62-12.65-15.64-17.31-28.72-22.25-42.56-3.29-9.23-6.69-18.77-12.74-30.16-15.91-29.99-41.1-59.65-54.7-74.66-11.07-12.23-30.25-4.05-34.69-.64-4.02,3.08-11.59,16.64-6.5,31.9,18.07,54.2,90.08,156.22,122.21,190.86l.49.53c16.31,17.6,36.61,39.5,69.44,44.19,29.28,4.18,58.92,1.68,80.56-.15,9.64-.82,17.72-1.5,24.09-1.5Z"/>
      </g>
      <g>
        <path class="cls-3" d="m446.56,247.52c-17,20.29-18.89,31.07-17,41s40.49,56.93,56,55,2.72-13.53,24.44-30.49,32.56-4.08,32.56-17.51c0-3.77-1.62-24.14-20.07-45.56s-29.94-26.31-36.93-26.78c-13.62-.91-31.17,15-39,24.34Z"/>
        <path class="cls-6" d="m484.68,348.07c-10.5,0-24.99-13.19-35.53-24.54-10.95-11.8-22.71-27.33-24.01-34.17-2.17-11.39.06-23.35,17.97-44.73,8.49-10.13,27-27,42.75-25.94,11.17.75,24.27,10.01,40.04,28.33,20.92,24.29,21.16,47.52,21.16,48.5,0,10.62-6.55,11.31-11.81,11.87-5.23.56-12.4,1.32-22.48,9.19-10.04,7.84-11.74,14.04-13.12,19.03-1.43,5.19-3.05,11.07-13.54,12.37-.47.06-.95.09-1.43.09Zm-.28-120.43c-11.14,0-26.89,13.81-34.39,22.77h0c-17.39,20.75-17.39,30.12-16.03,37.27.63,3.29,9.21,16.19,21.77,29.73,14.52,15.66,25.18,22.16,29.25,21.65,4.52-.56,4.68-1.16,5.97-5.83,1.54-5.6,3.87-14.07,16.25-23.74,12.11-9.46,21.47-10.45,27.07-11.04,1.24-.13,2.89-.31,3.52-.54.09-.26.24-.94.24-2.38,0-.84-.22-20.84-18.98-42.63-17.34-20.14-27.96-24.83-33.82-25.22-.28-.02-.57-.03-.86-.03Z"/>
      </g>
      <g>
        <path class="cls-3" d="m786.2,172c10.71-10.71-7.93-23.01,6.74-34.91s27.77,4.76,35.7-4.36-9.89-31.91-29.74-55.82-29.77-34.23-39.29-34.23-14.28,1.98-30.55,15.07-22.61,19.44-21.02,28.56,17.34,29.05,37.69,48,29.75,48.4,40.46,37.69Z"/>
        <path class="cls-6" d="m781.55,178.79c-.29,0-.57-.01-.86-.04-6.93-.6-12.16-8.03-19.39-18.31-5.24-7.45-11.18-15.89-18.62-22.82-17.98-16.74-37.02-38.86-39.05-50.52-2.12-12.2,7.22-20.43,22.64-32.84,16.42-13.22,22.34-16.07,33.37-16.07,11.71,0,22.52,11.48,42.75,35.85,23.04,27.76,39.86,49.93,29.67,61.65-5.46,6.28-12.59,4.43-18.32,2.94-6.04-1.57-11.75-3.05-17.95,1.97-5.35,4.34-4.71,7.95-3.03,14.49,1.45,5.61,3.43,13.3-3.37,20.1h0s0,0,0,0c-2.39,2.39-5.02,3.6-7.83,3.6Zm-21.93-131.6c-8.16,0-11.95,1.38-27.72,14.08-16.66,13.41-20.47,18.18-19.41,24.29,1.17,6.74,14.3,24.97,36.32,45.48,8.13,7.57,14.63,16.81,19.85,24.23,4.48,6.37,10.05,14.29,12.8,14.53.48.03,1.25-.66,1.56-.96h0c3.03-3.03,2.47-5.87,1.02-11.49-1.7-6.56-4.02-15.56,6.07-23.74,9.72-7.89,19.06-5.46,25.88-3.69,5.87,1.53,7.68,1.68,9.26-.13,2.04-2.34.25-8.57-4.91-17.08-6-9.92-16-22.19-24.9-32.91-18.71-22.54-28.33-32.6-35.82-32.6Z"/>
      </g>
      <g>
        <path class="cls-3" d="m319.59,537.06c0,6.84,13.98,22.02,24.69,22.02s40.54-4.36,41.65-13.39-5.06-15.47-22.31-27.67-21.12-13.39-29.45-7.44c-8.33,5.95-14.58,19.64-14.58,26.48Z"/>
        <path class="cls-6" d="m344.28,563.58c-12.6,0-29.19-16.68-29.19-26.52,0-8.5,7.19-23.52,16.46-30.14,11.09-7.92,17.55-4.67,34.67,7.42,17.88,12.64,25.62,20.25,24.18,31.89-.75,6.1-7.49,10.64-20.61,13.9-9.52,2.36-19.9,3.44-25.51,3.44Zm-1.73-51.96c-2.1,0-3.61,1.08-5.77,2.63-7.01,5-12.69,17.39-12.69,22.82,0,3.94,11.46,17.52,20.19,17.52,5.06,0,14.49-1.04,22.75-3.03,11.08-2.67,14.22-5.61,14.44-6.43.79-6.4-3.8-11.66-20.45-23.43-10.59-7.48-15.23-10.08-18.47-10.08Z"/>
      </g>
    </g>
  </g>
</svg>